<svg id="Layer_5" enable-background="new 0 0 64 64" height="512" viewBox="0 0 64 64" width="512" xmlns="http://www.w3.org/2000/svg"><g><path d="m31 23h2v-2c1.654 0 3-1.346 3-3 0-.768-.29-1.469-.766-2 .476-.531.766-1.232.766-2 0-1.654-1.346-3-3-3v-2h-2v2h-3v10h3zm-1-10h3c.551 0 1 .448 1 1s-.449 1-1 1h-3zm0 6v-2h3c.551 0 1 .448 1 1s-.449 1-1 1z"/><path d="m32 27c6.065 0 11-4.935 11-11s-4.935-11-11-11-11 4.935-11 11 4.935 11 11 11zm0-20c4.962 0 9 4.037 9 9s-4.038 9-9 9-9-4.037-9-9 4.038-9 9-9z"/><path d="m47 51c7.706 0 16-1.564 16-5 0-1.606-1.711-2.868-5.064-3.766 2.512-2.683 4.064-6.277 4.064-10.234 0-8.271-6.729-15-15-15-.015 0-.029.002-.043.002.028-.371.043-.744.043-1.118 0-8.207-6.677-14.884-14.884-14.884h-.231c-7.57 0-13.825 5.684-14.753 13.005-.044-.001-.088-.005-.132-.005-8.271 0-15 6.729-15 15 0 3.957 1.552 7.551 4.064 10.234-3.353.898-5.064 2.16-5.064 3.766 0 3.436 8.294 5 16 5 .188 0 .371-.005.556-.006.656 2.367 1.874 4.496 3.508 6.24-3.353.898-5.064 2.16-5.064 3.766 0 3.436 8.294 5 16 5s16-1.564 16-5c0-1.606-1.711-2.868-5.064-3.766.917-.979 1.708-2.074 2.338-3.27.57.017 1.139.036 1.726.036zm14-5c0 .897-4.763 3-14 3-.296 0-.577-.013-.868-.018.229-.648.429-1.309.568-1.994.1.002.199.012.3.012 3.446 0 6.614-1.18 9.15-3.141 3.965.847 4.85 1.914 4.85 2.141zm-14.034-3.002c.011 0 .023.002.034.002 2.673 0 5.125-.961 7.034-2.552l1.414 1.414c-2.275 1.951-5.223 3.138-8.448 3.138-.017 0-.034-.002-.051-.002.022-.331.051-.661.051-.998 0-.336-.013-.67-.034-1.002zm9.895-2.551-1.414-1.414c1.391-1.667 2.294-3.751 2.501-6.034h2c-.216 2.834-1.34 5.412-3.087 7.448zm0-16.894c1.747 2.036 2.871 4.615 3.088 7.447h-2c-.207-2.283-1.111-4.366-2.501-6.034zm-10.195-4.539c.112-.003.222-.014.334-.014 3.225 0 6.173 1.187 8.447 3.139l-1.414 1.414c-1.908-1.592-4.36-2.553-7.033-2.553-.312 0-.621.035-.93.061.247-.668.447-1.351.596-2.047zm-14.782-16.014h.231c7.105 0 12.885 5.779 12.885 12.884 0 2.499-.72 4.928-2.082 7.022l-10.212 15.71c-.312.48-1.1.48-1.413 0l-10.212-15.71c-1.361-2.094-2.081-4.523-2.081-7.022 0-7.105 5.78-12.884 12.884-12.884zm.116 50c-4.962 0-9-4.037-9-9 0-3.162 1.71-6.087 4.401-7.701l2.046 3.147c-.864.527-1.447 1.47-1.447 2.554 0 1.654 1.346 3 3 3h2c.551 0 1 .448 1 1s-.449 1-1 1h-2c-.551 0-1-.448-1-1h-2c0 1.654 1.346 3 3 3v2h2v-2c1.654 0 3-1.346 3-3s-1.346-3-3-3h-2c-.551 0-1-.448-1-1s.449-1 1-1h2c.551 0 1 .448 1 1h2c0-1.084-.583-2.027-1.448-2.554l2.046-3.147c2.692 1.614 4.402 4.539 4.402 7.701 0 4.963-4.038 9-9 9zm8.447.861c-2.036 1.747-4.615 2.871-7.447 3.088v-2c2.283-.207 4.366-1.111 6.034-2.501zm-9.447 1.088v2c-2.833-.217-5.411-1.341-7.447-3.088l1.414-1.414c1.667 1.392 3.75 2.295 6.033 2.502zm-11-22.949c0 1.103-.897 2-2 2s-2-.897-2-2h2v-2h-2v-2h2v-2h-2c0-1.103.897-2 2-2s2 .897 2 2h.707l3.411 5.247c-.808.499-1.556 1.07-2.243 1.698.075-.305.125-.618.125-.945zm5.208.924 1.096 1.687c-.469.285-.912.603-1.329.951l-1.426-1.426c.518-.442 1.068-.851 1.659-1.212zm12.488 1.686 1.096-1.687c.59.362 1.141.77 1.658 1.212l-1.426 1.426c-.416-.348-.859-.665-1.328-.951zm-20.696-18.61h.004c.005.676.053 1.348.148 2.011-.05-.001-.101-.011-.152-.011-2.673 0-5.125.961-7.034 2.552l-1.414-1.414c2.275-1.951 5.223-3.138 8.448-3.138zm-9.861 4.553 1.414 1.414c-1.392 1.667-2.295 3.75-2.502 6.033h-2c.217-2.833 1.341-5.411 3.088-7.447zm-3.088 9.447h2c.207 2.283 1.111 4.366 2.501 6.034l-1.414 1.414c-1.746-2.037-2.87-4.615-3.087-7.448zm12.949 16c-9.237 0-14-2.103-14-3 0-.227.885-1.294 4.85-2.141 2.536 1.961 5.704 3.141 9.15 3.141 0 .679.061 1.343.149 1.998-.05 0-.099.002-.149.002zm.136-4.005c-.046.001-.09.005-.136.005-3.225 0-6.173-1.187-8.447-3.139l1.414-1.414c1.908 1.592 4.36 2.553 7.033 2.553.183 0 .366-.019.549-.028-.183.66-.321 1.336-.413 2.023zm-.136-3.995c-4.962 0-9-4.037-9-9s4.038-9 9-9c.198 0 .395.029.594.042.198.68.445 1.345.738 1.992-.111-.01-.218-.034-.332-.034-2.206 0-4 1.794-4 4h-2v2h2v2h-2v2h2c0 2.206 1.794 4 4 4 .536 0 1.046-.11 1.514-.302-.465.698-.874 1.431-1.215 2.198-.43.062-.864.104-1.299.104zm5.134-2.452 1.426 1.426c-1.409 1.694-2.301 3.793-2.508 6.026h-2.011c.213-2.789 1.315-5.384 3.093-7.452zm-3.083 9.452h2c.207 2.283 1.111 4.366 2.501 6.034l-1.414 1.414c-1.746-2.037-2.87-4.615-3.087-7.448zm26.949 13c0 .897-4.763 3-14 3s-14-2.103-14-3c0-.227.885-1.294 4.85-2.141 2.536 1.961 5.704 3.141 9.15 3.141s6.614-1.18 9.15-3.141c3.965.847 4.85 1.914 4.85 2.141zm-4.139-5.553-1.414-1.414c1.391-1.667 2.294-3.751 2.501-6.034h2c-.216 2.834-1.34 5.412-3.087 7.448zm1.087-9.447c-.208-2.233-1.099-4.332-2.508-6.026l1.426-1.426c1.778 2.068 2.88 4.664 3.093 7.452zm-3.066-11.753 4.713-7.251c.163-.251.314-.509.461-.768.636-.14 1.286-.228 1.944-.228 4.962 0 9 4.037 9 9s-4.038 9-9 9c-.104 0-.204-.014-.307-.017-.138-.676-.322-1.338-.549-1.983h5.856v-2h-4.544c.345-.594.544-1.279.544-2v-2h2v-2h-2v-4h4v-2h-8v2h2v4h-2v2h2v2c0 .691-.361 1.315-.916 1.677-1.227-2.189-2.997-4.068-5.202-5.43z"/><path d="m35 29h2v2h-2z"/><path d="m31 29h2v2h-2z"/><path d="m27 29h2v2h-2z"/></g></svg>